# xmcd
#
# Track frame offsets: 
#        150
#        15186
#        29046
#        40306
#        50632
#        63999
#        75347
#        89014
#        99786
#        118123
#        136412
#        149183
#        161641
#        176763
#
# Disc length: 2551 seconds
#
# Revision: 4
# Processed by: cddbd v1.5.2PL0 Copyright (c) Steve Scherf et al.
# Submitted via: ExactAudioCopy v0.99pb3
#
DISCID=c009f50e
DTITLE=Guided By Voices - Half Smiles Of The Decomposed
DYEAR=2004
DGENRE=Alternative
TTITLE0=Everybody Thinks I'm a Raincloud (When I'm Not Looking)
TTITLE1=Sleep Over Jack
TTITLE2=Girls of Wild Strawberries
TTITLE3=Gonna Never Have to Die
TTITLE4=Window of My World
TTITLE5=The Closets of Henry
TTITLE6=Tour Guide at the Winston Churchill Memorial
TTITLE7=Asia Minor
TTITLE8=Sons of Apollo
TTITLE9=Sing for Your Meat
TTITLE10=Asphyxiated Circle
TTITLE11=A Second Spurt of Growth
TTITLE12=(S)mothering and Coaching
TTITLE13=Huffman Prairie Flying Field
EXTD=YEAR: 2004
EXTT0=
EXTT1=
EXTT2=
EXTT3=
EXTT4=
EXTT5=
EXTT6=
EXTT7=
EXTT8=
EXTT9=
EXTT10=
EXTT11=
EXTT12=
EXTT13=
PLAYORDER=
